<svg xmlns="http://www.w3.org/2000/svg" viewBox="0 0 165.02 79.11"><defs><style>.cls-1,.cls-2{fill:#003374;}.cls-2,.cls-3,.cls-4,.cls-5{fill-rule:evenodd;}.cls-3{fill:#de0059;}.cls-4{fill:#b0b2cf;}.cls-5{fill:#f8b322;}</style></defs><title>uaa-logo</title><g id="Layer_2" data-name="Layer 2"><g id="Capa_1" data-name="Capa 1"><path class="cls-1" d="M6,58v6.57H3.59a1.85,1.85,0,0,1-1.83-1.76v-6H1.22A1.19,1.19,0,0,0,0,58v4.81a3,3,0,0,0,3,3H7.71V56.81H7.1A1.17,1.17,0,0,0,6,58Z"/><path class="cls-1" d="M16.27,65.75h.61v-6a3,3,0,0,0-3-3H9.16v7.71a1.19,1.19,0,0,0,1.15,1.22h.61V58h2.37a1.74,1.74,0,0,1,1.83,1.76v4.73A1.19,1.19,0,0,0,16.27,65.75Z"/><path class="cls-1" d="M19.47,65.75H20V58a1.17,1.17,0,0,0-1.15-1.14h-.61v7.71A1.26,1.26,0,0,0,19.47,65.75Z"/><path class="cls-1" d="M29.25,62.77v-6h-.61A1.19,1.19,0,0,0,27.49,58v4.73a1.79,1.79,0,0,1-1.83,1.76H23.29V56.81h-.61A1.19,1.19,0,0,0,21.53,58v7.71h4.74A3,3,0,0,0,29.25,62.77Z"/><path class="cls-1" d="M37.88,64.6H34.59c-2,0-2.6-1.45-2.67-3H36a1.21,1.21,0,0,0,1.22-1.22h-3.9a1.73,1.73,0,0,0-1.45.84c0-1.68.61-3.21,2.67-3.21h2.06a1.19,1.19,0,0,0,1.22-1.15H34.59c-3.28,0-4.43,1.53-4.43,4.43s1.15,4.43,4.43,4.43h2.06A1.19,1.19,0,0,0,37.88,64.6Z"/><path class="cls-1" d="M44.44,61.85a2.41,2.41,0,0,0,2.14-2.44,2.49,2.49,0,0,0-2.52-2.52H38.87V64.6a1.15,1.15,0,0,0,1.22,1.15h.53V61.93h1.76l1.91,3a1.72,1.72,0,0,0,1.6.84h1Zm-1-1.14h-1.3a1.86,1.86,0,0,0-1.53.84V58h2.82a1.37,1.37,0,0,1,1.38,1.37A1.31,1.31,0,0,1,43.45,60.71Z"/><path class="cls-1" d="M52.54,60.4H50.48a1.19,1.19,0,0,1-1.15-1.22A1.13,1.13,0,0,1,50.48,58h3a1.19,1.19,0,0,0,1.15-1.22H49.86a2.38,2.38,0,0,0-2.37,2.37,2.33,2.33,0,0,0,2.37,2.37H52a1.49,1.49,0,0,1,0,3H48.72a1.21,1.21,0,0,0-1.22,1.22h5a2.67,2.67,0,0,0,0-5.35Z"/><path class="cls-1" d="M67.66,61.32c0-2.9-1.22-4.51-4.43-4.51H59.33v8.93h3.89C66.43,65.75,67.66,64.22,67.66,61.32ZM61.17,58h2.06c2.06,0,2.67,1.6,2.67,3.28s-.61,3.21-2.67,3.21H61.17Z"/><path class="cls-1" d="M57.42,65.75H58V58a1.17,1.17,0,0,0-1.15-1.14H56.2v7.71A1.26,1.26,0,0,0,57.42,65.75Z"/><path class="cls-1" d="M68.27,63.07a2.66,2.66,0,0,0,2.67,2.67h5.65V60.4A3.54,3.54,0,0,0,73,56.81H70A1.17,1.17,0,0,0,68.88,58h3.51a2.39,2.39,0,0,1,2.37,2.44H70.94A2.61,2.61,0,0,0,68.27,63.07Zm5-1.53a1.74,1.74,0,0,0,1.45-.77v3.74H71.55a1.49,1.49,0,1,1,0-3Z"/><path class="cls-1" d="M86.06,61.32c0-2.9-1.22-4.51-4.43-4.51H77.74v8.93h3.89C84.84,65.75,86.06,64.22,86.06,61.32Zm-4.43,3.21H79.57V58h2.06c2.06,0,2.67,1.6,2.67,3.28S83.69,64.52,81.63,64.52Z"/><path class="cls-1" d="M91.25,63.07a2.66,2.66,0,0,0,2.67,2.67h5.65V60.4A3.54,3.54,0,0,0,96,56.81H93A1.17,1.17,0,0,0,91.86,58h3.51a2.39,2.39,0,0,1,2.37,2.44H93.92A2.61,2.61,0,0,0,91.25,63.07Zm5-1.53a1.74,1.74,0,0,0,1.45-.77v3.74H94.54a1.49,1.49,0,1,1,0-3Z"/><path class="cls-1" d="M103.7,65.75h4.73V56.81h-.61A1.17,1.17,0,0,0,106.68,58v6.57h-2.37a1.84,1.84,0,0,1-1.83-1.76v-6h-.54A1.19,1.19,0,0,0,100.72,58v4.81A3,3,0,0,0,103.7,65.75Z"/><path class="cls-1" d="M112.25,64.6a1.13,1.13,0,0,0,1.15,1.15H114V58h1.75A1.19,1.19,0,0,0,117,56.89h-6.57A1.17,1.17,0,0,0,109.27,58h3Z"/><path class="cls-1" d="M121.64,56.58c-3.21,0-4.43,1.68-4.43,4.66s1.22,4.66,4.43,4.66,4.43-1.6,4.43-4.66S124.85,56.58,121.64,56.58Zm0,8.17c-2.06,0-2.67-1.68-2.67-3.51s.61-3.44,2.67-3.44,2.67,1.68,2.67,3.44S123.7,64.75,121.64,64.75Z"/><path class="cls-1" d="M128.21,65.75h.61V58h2.37A1.75,1.75,0,0,1,133,59.79v4.73a1.19,1.19,0,0,0,1.14,1.22h.61v-6a3,3,0,0,0-3-3h-4.73v7.71A1.19,1.19,0,0,0,128.21,65.75Z"/><path class="cls-1" d="M140.2,65.9c3.21,0,4.43-1.6,4.43-4.66s-1.22-4.66-4.43-4.66-4.43,1.68-4.43,4.66S137,65.9,140.2,65.9Zm0-8.09c2.06,0,2.67,1.68,2.67,3.44s-.61,3.51-2.67,3.51-2.67-1.68-2.67-3.51S138.14,57.81,140.2,57.81Z"/><path class="cls-1" d="M152.72,56.81h-7.1v7.71a1.19,1.19,0,0,0,1.22,1.15h.53V58h1.53a.93.93,0,0,1,.92.92v5.65A1.17,1.17,0,0,0,151,65.67h.61v-6.8a2,2,0,0,0-.23-.92h.84a1.79,1.79,0,0,1,1.76,1.83v4.73a1.19,1.19,0,0,0,1.22,1.15h.53V59.79A2.93,2.93,0,0,0,152.72,56.81Z"/><path class="cls-1" d="M161.43,56.81h-3A1.17,1.17,0,0,0,157.3,58h3.51a2.39,2.39,0,0,1,2.37,2.44h-3.82a2.61,2.61,0,0,0-2.67,2.67,2.66,2.66,0,0,0,2.67,2.67H165V60.4A3.54,3.54,0,0,0,161.43,56.81Zm1.76,7.71H160a1.49,1.49,0,1,1,0-3h1.76a1.74,1.74,0,0,0,1.45-.77Z"/><path class="cls-1" d="M19.17,70.18H15.27v8.93h3.89c3.21,0,4.43-1.53,4.43-4.43S22.38,70.18,19.17,70.18Zm0,7.71H17.11V71.4h2.06c2.06,0,2.67,1.6,2.67,3.28S21.23,77.89,19.17,77.89Z"/><path class="cls-1" d="M28.86,71.4h2.06a1.19,1.19,0,0,0,1.22-1.15H28.86c-3.28,0-4.43,1.53-4.43,4.43s1.14,4.43,4.43,4.43h2.06A1.19,1.19,0,0,0,32.15,78H28.86c-2,0-2.6-1.45-2.67-3h4.12a1.21,1.21,0,0,0,1.22-1.22H27.64a1.73,1.73,0,0,0-1.45.84C26.19,72.92,26.8,71.4,28.86,71.4Z"/><path class="cls-1" d="M41.69,70.18h-3a1.17,1.17,0,0,0-1.14,1.14h3.51a2.39,2.39,0,0,1,2.37,2.44H39.63A2.61,2.61,0,0,0,37,76.44a2.66,2.66,0,0,0,2.67,2.67h5.65V73.76A3.54,3.54,0,0,0,41.69,70.18Zm1.75,7.71H40.24a1.49,1.49,0,1,1,0-3H42a1.74,1.74,0,0,0,1.45-.76Z"/><path class="cls-1" d="M50.7,71.4h2.67a1.26,1.26,0,0,0,1.22-1.22H50.7c-3.21,0-4.43,1.6-4.43,4.5s1.22,4.43,4.43,4.43h3.9v-5H49.79A1.19,1.19,0,0,0,51,75.22h1.76V78H50.7c-2.06-.08-2.67-1.6-2.67-3.28S48.64,71.4,50.7,71.4Z"/><path class="cls-1" d="M61.7,71.32v6.57H59.33a1.85,1.85,0,0,1-1.83-1.76v-6H57a1.19,1.19,0,0,0-1.22,1.14v4.81a3,3,0,0,0,3,3h4.74V70.18h-.61A1.17,1.17,0,0,0,61.7,71.32Z"/><path class="cls-1" d="M69.18,70.18h-3a1.17,1.17,0,0,0-1.14,1.14h3.51a2.39,2.39,0,0,1,2.37,2.44H67.12a2.61,2.61,0,0,0-2.67,2.67,2.66,2.66,0,0,0,2.67,2.67h5.65V73.76A3.54,3.54,0,0,0,69.18,70.18Zm1.76,7.71H67.73a1.49,1.49,0,1,1,0-3h1.76a1.74,1.74,0,0,0,1.45-.76Z"/><path class="cls-1" d="M86.36,71.4h2.06a1.21,1.21,0,0,0,1.22-1.22H86.36c-3.21,0-4.43,1.6-4.43,4.5s1.22,4.43,4.43,4.43h2.06A1.19,1.19,0,0,0,89.65,78H86.36c-2.06,0-2.67-1.6-2.67-3.28S84.3,71.4,86.36,71.4Z"/><path class="cls-1" d="M107.36,70.18h-.61v7.71A1.26,1.26,0,0,0,108,79.11h.53V71.32A1.17,1.17,0,0,0,107.36,70.18Z"/><path class="cls-1" d="M123,70.18h-4.73v7.71a1.19,1.19,0,0,0,1.15,1.22H120V71.4h2.37a1.75,1.75,0,0,1,1.83,1.76v4.74a1.19,1.19,0,0,0,1.14,1.22H126v-6A3,3,0,0,0,123,70.18Z"/><path class="cls-1" d="M114,71.4h2.06a1.19,1.19,0,0,0,1.22-1.15H114c-3.28,0-4.43,1.53-4.43,4.43s1.15,4.43,4.43,4.43h2.06A1.19,1.19,0,0,0,117.29,78H114c-2,0-2.6-1.45-2.67-3h4.12a1.21,1.21,0,0,0,1.22-1.22h-3.89a1.73,1.73,0,0,0-1.45.84C111.34,72.92,111.95,71.4,114,71.4Z"/><path class="cls-1" d="M139,71.4H141a1.19,1.19,0,0,0,1.22-1.15H139c-3.28,0-4.43,1.53-4.43,4.43s1.15,4.43,4.43,4.43H141A1.19,1.19,0,0,0,142.26,78H139c-2,0-2.6-1.45-2.67-3h4.12a1.21,1.21,0,0,0,1.22-1.22h-3.89a1.73,1.73,0,0,0-1.45.84C136.3,72.92,136.92,71.4,139,71.4Z"/><path class="cls-1" d="M126.61,71.4h3V78a1.12,1.12,0,0,0,1.14,1.14h.61V71.4h1.76a1.2,1.2,0,0,0,1.22-1.15h-6.57A1.18,1.18,0,0,0,126.61,71.4Z"/><path class="cls-1" d="M147.84,73.76h-2.06a1.19,1.19,0,0,1-1.15-1.22,1.12,1.12,0,0,1,1.15-1.14h3a1.19,1.19,0,0,0,1.15-1.22h-4.73a2.37,2.37,0,1,0,0,4.73h2.14a1.49,1.49,0,0,1,0,3H144a1.2,1.2,0,0,0-1.22,1.22h5a2.67,2.67,0,1,0,0-5.35Z"/><path class="cls-1" d="M101.1,76.13V71.4a1.21,1.21,0,0,0-1.22-1.22h-.61v6a3,3,0,0,0,3,3h2.37a1.2,1.2,0,0,0,1.22-1.22h-3A1.73,1.73,0,0,1,101.1,76.13Z"/><path class="cls-1" d="M94.54,70.18h-3a1.17,1.17,0,0,0-1.14,1.14h3.51a2.39,2.39,0,0,1,2.37,2.44H92.47a2.61,2.61,0,0,0-2.67,2.67,2.65,2.65,0,0,0,2.67,2.67h5.65V73.76A3.54,3.54,0,0,0,94.54,70.18Zm.31,4.73a1.74,1.74,0,0,0,1.45-.76v3.74H93.09a1.49,1.49,0,1,1,0-3"/><path class="cls-1" d="M78.58,73.76H76.51a1.19,1.19,0,0,1-1.15-1.22,1.12,1.12,0,0,1,1.15-1.14h3a1.19,1.19,0,0,0,1.15-1.22H75.9a2.37,2.37,0,1,0,0,4.73H78a1.49,1.49,0,0,1,0,3H74.76a1.21,1.21,0,0,0-1.22,1.22h5a2.67,2.67,0,0,0,0-5.35Z"/><path class="cls-2" d="M84.38,6A5.31,5.31,0,0,1,89.72.69h4a19.5,19.5,0,0,1,19.47,19.47V51.7a5.31,5.31,0,0,1-5.34-5.35V20.16A14.14,14.14,0,0,0,93.77,6Zm-4,40.32A5.36,5.36,0,0,1,75,51.7h-4A19.46,19.46,0,0,1,51.47,32.22V.69A5.36,5.36,0,0,1,56.81,6V32.22A14.14,14.14,0,0,0,70.94,46.35Z"/><path class="cls-3" d="M83,40.93l-2.82-2.75a5.56,5.56,0,0,1-1.68-3.9,5.73,5.73,0,0,1,.76-2.75l6.41-10.84a6.6,6.6,0,0,0,.92-3.43,3.71,3.71,0,0,0-.08-.92l2.37,2.29A7.29,7.29,0,0,1,91,23.75a6.53,6.53,0,0,1-1,3.59L83.84,37.87A6.13,6.13,0,0,0,83,40.93"/><path class="cls-4" d="M79,0a6.73,6.73,0,0,0-6.72,6.72H83V6a6.67,6.67,0,0,1,3.74-6ZM58.11,32.22A12.77,12.77,0,0,0,70.86,45h8.78A17.4,17.4,0,0,1,68.88,28.86V6.72A6.73,6.73,0,0,0,62.16,0H54.29a6.61,6.61,0,0,1,3.82,6Zm48.41-12.06A12.84,12.84,0,0,0,93.77,7.33H85A17.59,17.59,0,0,1,95.76,23.52V45.66a6.73,6.73,0,0,0,6.72,6.72h7.79a6.67,6.67,0,0,1-3.74-6ZM85.68,52.38a6.73,6.73,0,0,0,6.72-6.72H81.63v.69a6.67,6.67,0,0,1-3.74,6Z"/><path class="cls-5" d="M83.62,13.36a5.55,5.55,0,0,1,1.68,3.9A5.7,5.7,0,0,1,84.53,20L78.12,30.85a7.18,7.18,0,0,0-.92,3.44,4.64,4.64,0,0,0,.08,1l-1.76-1.76a7.21,7.21,0,0,1-1-8.4l6.19-10.46a6.15,6.15,0,0,0,1-3.28Z"/></g></g></svg>